<svg width="180" height="180" viewBox="0 0 180 180" fill="none" xmlns="http://www.w3.org/2000/svg">
<path d="M128.496 0.527353C121.852 1.54688 115.945 3.83204 110.32 7.5586C107.121 9.66798 104.625 12.0234 89.543 27.0352C80.086 36.4219 71.3672 45.3164 70.2071 46.793C67.3243 50.3438 65.0039 54.3164 63.3164 58.5L61.9454 61.9453L58.5 63.3164C54.3164 65.0039 50.3438 67.3242 46.793 70.207C45.3164 71.3672 36.4219 80.0859 27.0352 89.543C12.0235 104.625 9.66801 107.121 7.55863 110.32C-4.28902 128.285 -1.96871 151.699 13.1836 166.816C26.6133 180.246 47.1094 183.762 64.2305 175.57C70.6641 172.512 72.1407 171.211 91.6172 151.734C112.746 130.605 113.414 129.762 117.07 120.445L118.02 118.055L121.359 116.754C125.402 115.137 129.621 112.676 133.207 109.793C134.684 108.633 143.578 99.9141 152.965 90.457C171.106 72.2109 172.582 70.5234 175.57 64.1953C183.762 46.9336 180.281 26.6133 166.816 13.1836C156.797 3.12892 142.277 -1.65233 128.496 0.527353ZM143.262 6.1172C168.434 11.6367 181.828 38.707 170.859 61.8047C168.082 67.6406 166.711 69.1875 148.359 87.5742C138.797 97.1719 129.938 105.785 128.707 106.664C126.246 108.457 122.941 110.391 120.867 111.27L119.531 111.797L119.742 107.156C119.918 103.676 119.813 101.461 119.391 98.6133L118.828 94.7109L136.723 76.8164L154.617 58.8867L156.234 55.5469C159.82 48.2344 159.82 41.3789 156.234 34.1016C153.914 29.4609 150.539 26.0859 145.898 23.7656C138.621 20.1797 131.766 20.1797 124.453 23.7656L121.113 25.418L103.957 42.5039C85.4297 60.9258 84.3399 62.2266 82.4766 67.4649C81.5274 70.207 81.4219 70.9102 81.3868 74.8828C81.3868 78.7852 81.4922 79.6289 82.4063 82.3711C83.5664 85.9219 85.0782 88.4531 88.1719 91.8984C92.1094 96.3633 93.7618 100.723 93.4102 105.996C93.3047 107.543 92.9532 109.617 92.6368 110.637L92.0391 112.43L90.7383 111.973C82.6172 109.125 74.461 101.918 70.1016 93.7266C63.1407 80.6133 64.0196 64.8984 72.4571 52.4883C74.9883 48.7969 108.316 15.3633 112.148 12.6563C116.895 9.35157 122.695 6.89063 127.793 6.01173C128.953 5.80079 130.289 5.5547 130.781 5.48438C132.574 5.16798 140.871 5.58985 143.262 6.1172ZM141.047 27.3867C146.707 29.3555 150.856 33.5742 152.789 39.375C153.246 40.7461 153.457 42.3281 153.457 44.8242C153.457 48.6914 152.895 50.836 151.066 54.1406C150.293 55.582 145.723 60.3633 133.629 72.4922C124.629 81.5625 117.176 88.9453 117.07 88.9453C116.965 88.9453 116.438 87.8555 115.91 86.5195C114.645 83.4258 110.742 77.5195 107.93 74.4258C105.785 72.1055 101.285 68.3789 98.7539 66.8672C96.9961 65.8125 95.5196 65.8477 94.6055 67.0078C93.1641 68.8359 93.7266 69.75 97.8047 72.6328C109.793 81 116.227 95.8008 114.223 110.25C113.414 116.191 110.988 122.449 107.543 127.512C104.906 131.379 71.2969 165.023 67.4297 167.625C51.3985 178.488 30.586 176.66 17.0157 163.195C11.3555 157.535 7.6641 150.75 5.90629 142.559C5.34379 139.816 5.34379 130.535 5.90629 127.793C7.13676 122.098 9.42191 116.789 12.6563 112.148C15.2227 108.492 48.375 75.3399 52.0313 72.7734C54.5274 71.0508 57.7266 69.2578 59.625 68.5547L60.4688 68.2383L60.2579 72.8789C60.0821 76.3242 60.1875 78.5391 60.6094 81.3867L61.1719 85.2891L43.2774 103.184L25.3828 121.113L23.7657 124.453C20.1797 131.766 20.1797 138.621 23.7657 145.898C26.086 150.539 29.461 153.914 34.1016 156.234C41.3789 159.82 48.2344 159.82 55.5469 156.234L58.8868 154.582L76.043 137.496C94.5703 119.074 95.6602 117.773 97.5235 112.535C98.4727 109.793 98.5782 109.09 98.6133 105.117C98.6133 101.215 98.5078 100.371 97.5938 97.6289C96.4336 94.0781 94.9219 91.5469 91.8282 88.1016C89.2618 85.1836 87.75 82.4414 87.0118 79.418C85.9922 75.0234 86.4493 71.1211 88.5235 66.7969C89.7188 64.2656 90.5274 63.3867 107.016 46.8985C123.434 30.4805 124.418 29.6016 126.914 28.3711C128.356 27.668 130.359 26.9649 131.309 26.7539C133.84 26.2266 138.691 26.543 141.047 27.3867ZM64.0899 93.4805C65.6368 97.2774 69.6797 103.113 73.2657 106.734C76.8164 110.25 81.9844 113.871 86.3086 115.84L89.086 117.105L72.5977 133.559C60.3633 145.723 55.5821 150.293 54.1407 151.066C50.836 152.895 48.6914 153.457 44.8243 153.457C42.3282 153.457 40.7461 153.246 39.375 152.789C33.5391 150.82 29.1797 146.461 27.211 140.625C26.2969 137.953 26.2969 132.398 27.211 129.727C28.6875 125.332 29.3555 124.559 46.3711 107.473C55.3711 98.4375 62.8243 91.0547 62.9297 91.0547C63.0352 91.0547 63.5625 92.1445 64.0899 93.4805Z" fill="#F7BE56"/>
</svg>
