<svg width="180" height="180" viewBox="0 0 180 180" fill="none" xmlns="http://www.w3.org/2000/svg">
<path d="M11.1094 30.9727C10.3359 31.4648 9.03516 34.3477 8.4375 36.9492C7.73437 40.1133 8.15625 46.6172 9.28125 50.4492C11.1797 56.7773 14.4844 63.457 19.0547 70.3477C20.2852 72.1758 21.4102 73.8984 21.5859 74.1797C22.0781 74.9531 19.582 72.8789 15.8906 69.4688C14.0273 67.7109 12.3398 66.4453 11.918 66.4453C10.0195 66.4453 8.78906 69.5039 8.78906 74.2148C8.78906 77.4844 9.28125 79.3477 11.0742 83.1445C14.3086 89.8945 21.1289 97.1016 30.5508 103.641C31.9922 104.66 32.9414 105.469 32.6602 105.469C31.8164 105.469 26.2266 102.48 24.082 100.898C20.707 98.4023 18.9141 99 18.457 102.762C18.1758 105.047 18.9492 108.949 20.1797 111.375C23.3789 117.703 32.0273 124.629 40.957 128.074C52.0664 132.328 60.1172 138.973 63.5977 146.742C65.1445 150.152 66.0586 150.223 69.6797 147.34C75.0586 143.016 79.875 137.355 82.3711 132.363C85.043 127.055 85.9922 122.555 85.6758 116.719C84.9375 102.27 74.4609 87.5742 53.8594 71.9648C40.1133 61.5938 27.7383 49.2539 17.7539 36.0352C15.8555 33.5039 14.0625 31.2539 13.7461 31.0078C13.1133 30.4805 11.9883 30.4805 11.1094 30.9727ZM16.875 42.8906C26.4375 54.9141 37.793 65.918 51.3281 76.2891C58.2539 81.5625 61.2774 84.1992 65.7774 88.8398C84.1992 107.895 85.7813 124.84 70.4883 140.027C68.9766 141.504 67.6406 142.734 67.5352 142.734C67.3945 142.734 66.5156 141.539 65.5664 140.062C61.3125 133.559 53.7188 128.004 42.9258 123.539C34.2773 119.953 27.5977 114.785 24.8203 109.547C23.9414 107.859 23.625 106.664 24.1875 106.945C27.5977 108.703 30.9023 110.145 32.5195 110.566C35.332 111.27 40.1484 111.234 42.1875 110.461C45.2109 109.301 45.2461 106.945 42.293 105.258C34.7695 100.969 28.2305 96.1172 22.9922 90.8789C17.4023 85.3242 14.3438 80.2617 13.8164 75.7969L13.6055 74.0391L16.0313 76.1836C21.6563 81.1406 28.2305 85.0078 31.6055 85.3594C33.082 85.5 33.3633 85.3945 33.8906 84.6914C34.875 83.25 34.5586 82.4414 31.5703 78.8555C22.1836 67.6055 15.7852 56.4258 13.7109 47.6719C12.8672 44.1914 12.6914 37.8281 13.4648 38.6719C13.7461 38.9531 15.2578 40.8516 16.875 42.8906Z" fill="#F7BE56"/>
<path d="M166.219 31.0078C165.902 31.2539 164.25 33.3633 162.492 35.6836C152.191 49.4297 141.152 60.4687 126.035 72.0703C115.488 80.1914 109.441 85.9922 104.098 93.0586C97.7344 101.531 94.711 108.879 94.3243 116.93C93.9727 124.137 95.8008 130.254 100.266 136.863C102.129 139.605 106.945 144.633 110.32 147.34C114.117 150.398 114.68 150.258 116.93 145.652C120.445 138.516 127.934 132.539 138.867 128.145C148.43 124.312 156.551 117.809 159.82 111.375C161.719 107.613 162.176 101.953 160.699 100.16C159.68 98.8945 158.309 99.1406 155.742 101.039C153.598 102.621 148.148 105.469 147.27 105.469C147.059 105.469 148.219 104.484 149.906 103.324C159.363 96.5742 165.727 89.8242 168.926 83.1445C170.719 79.3477 171.211 77.4844 171.211 74.2148C171.211 69.5039 169.981 66.4453 168.082 66.4453C167.66 66.4453 165.973 67.7109 164.109 69.4687C160.418 72.8789 157.922 74.9531 158.414 74.1797C158.59 73.8984 159.785 72.0703 161.051 70.1367C165.621 63.2461 168.856 56.707 170.719 50.4492C171.844 46.6172 172.266 40.1133 171.563 36.9492C170.402 31.8164 168.258 29.4258 166.219 31.0078ZM166.43 47.1094C164.531 55.8281 157.957 67.3945 148.43 78.8555C145.441 82.4414 145.125 83.25 146.109 84.6914C146.637 85.3945 146.918 85.5 148.395 85.3594C151.77 85.0078 158.344 81.1406 163.969 76.1836L166.395 74.0391L166.184 76.0078C165.938 78.4687 163.863 83.0391 161.648 85.957C157.289 91.6875 147.973 99.2812 138.586 104.73C135.703 106.383 135.07 107.402 135.773 108.914C136.441 110.285 138.797 111.059 142.383 111.059C146.109 111.094 148.711 110.461 152.578 108.562C154.231 107.754 155.707 107.016 155.883 106.945C156.586 106.594 155.602 108.984 154.055 111.234C151.102 115.664 144.035 120.797 137.461 123.398C127.09 127.441 118.723 133.523 114.434 140.062C113.484 141.539 112.606 142.734 112.5 142.734C112.359 142.734 111.059 141.539 109.582 140.098C96.2579 127.02 95.6954 112.5 107.859 96.1172C111.094 91.7578 120.234 82.7227 125.473 78.75C137.461 69.6094 142.629 65.1094 150.82 56.7422C156.305 51.1172 161.156 45.5977 165.059 40.4297L166.816 38.1445L166.922 41.3086C166.992 43.3125 166.816 45.4219 166.43 47.1094Z" fill="#F7BE56"/>
</svg>
