<svg width="180" height="180" viewBox="0 0 180 180" fill="none" xmlns="http://www.w3.org/2000/svg">
<g clip-path="url(#clip0_40:14)">
<path d="M32.6953 97.9805C32.6953 98.5781 34.1367 100.547 34.9453 101.074C35.4375 101.391 39.2695 102.551 43.4883 103.605C47.707 104.66 51.293 105.645 51.4336 105.82C51.6094 105.961 49.957 109.09 47.7773 112.711C45.5977 116.367 43.5938 119.953 43.3477 120.691C42.7148 122.555 43.2422 124.418 44.8242 125.824C46.8984 127.617 47.6016 127.582 56.3203 125.156C60.6445 123.961 64.3008 122.941 64.4766 122.906C64.6523 122.906 64.7578 126.422 64.7227 131.309C64.6523 138.832 64.7227 139.887 65.2852 140.977C66.5508 143.438 69.6797 144.492 72 143.297C72.5273 143.016 75.4102 140.309 78.3984 137.32C81.3867 134.297 84.0234 131.836 84.2695 131.836C84.6211 131.836 84.7266 135.246 84.7266 148.078C84.7266 157.395 84.9023 165.34 85.0781 166.641C86.0977 173.004 90.9844 178.137 97.2773 179.473C100.793 180.211 142.488 180.211 146.004 179.473C150.504 178.523 154.688 175.359 156.621 171.457L157.57 169.488L166.992 169.383C175.887 169.277 176.484 169.242 177.398 168.539C177.926 168.152 178.699 167.379 179.086 166.852C179.824 165.902 179.824 165.551 179.824 143.156C179.824 120.902 179.824 120.375 179.121 119.18C178.699 118.512 177.855 117.668 177.188 117.246C176.062 116.613 175.254 116.543 166.922 116.438L157.887 116.332L157.324 114.328C155.496 108.035 150.504 101.812 144.809 98.7891L142.805 97.7344H128.074H113.309L111.164 99.7031C107.473 103.008 105.855 107.402 105.82 113.977V116.367H103.465C97.3828 116.402 93.2695 117.738 90.0703 120.727C88.418 122.273 88.3477 122.309 86.9766 121.957C83.707 121.043 79.5234 122.133 76.3945 124.664L75.2344 125.613V120.27C75.2344 113.906 74.8477 112.711 72.3164 111.48C71.4727 111.059 70.5586 110.742 70.2422 110.742C69.9609 110.742 67.4648 111.375 64.6875 112.148C61.9453 112.957 59.5898 113.52 59.5195 113.414C59.4141 113.344 60.5039 111.34 61.875 108.984C63.2812 106.629 64.5469 104.203 64.7227 103.605C65.1797 101.988 64.5117 100.09 63.1055 98.8242L61.8398 97.7344H47.2852C39.2695 97.7344 32.6953 97.8398 32.6953 97.9805ZM137.25 106.523C141.785 107.93 145.828 112.043 147.305 116.684C147.973 118.828 148.008 119.848 148.008 142.348C148.008 165.094 147.973 165.797 147.305 166.922C146.918 167.555 146.109 168.363 145.477 168.75C144.352 169.418 143.648 169.453 121.641 169.453C99.6328 169.453 98.9297 169.418 97.8047 168.75C97.1719 168.363 96.3633 167.555 95.9766 166.922C95.3086 165.797 95.2734 165.094 95.2734 148.184C95.2734 131.379 95.3086 130.57 95.9766 129.48C97.4531 127.02 96.6797 127.125 116.016 126.914C132.715 126.738 133.453 126.703 134.648 126.035C138.023 124.031 138.023 119.25 134.648 117.246C133.523 116.613 132.715 116.543 124.875 116.438L116.297 116.332L116.438 112.5C116.543 108.809 116.578 108.633 117.598 107.578C118.195 106.945 118.969 106.312 119.355 106.172C119.742 105.996 123.398 105.855 127.477 105.855C134.016 105.82 135.211 105.891 137.25 106.523ZM169.453 142.91V158.906H164.004H158.555V142.91V126.914H164.004H169.453V142.91Z" fill="#0780BD"/>
<path d="M147.129 100.046C147.129 99.4482 145.688 97.4795 144.879 96.9521C144.387 96.6357 140.555 95.4756 136.336 94.4209C132.117 93.3662 128.531 92.3818 128.391 92.2061C128.215 92.0654 129.867 88.9365 132.047 85.3154C134.227 81.6592 136.23 78.0732 136.477 77.335C137.109 75.4717 136.582 73.6084 135 72.2021C132.926 70.4092 132.223 70.4443 123.504 72.8701C119.18 74.0654 115.523 75.085 115.348 75.1201C115.172 75.1201 115.066 71.6045 115.102 66.7178C115.172 59.1943 115.102 58.1396 114.539 57.0498C113.273 54.5889 110.145 53.5342 107.824 54.7295C107.297 55.0107 104.414 57.7178 101.426 60.7061C98.4375 63.7295 95.8008 66.1904 95.5547 66.1904C95.2031 66.1904 95.0977 62.7803 95.0977 49.9482C95.0977 40.6318 94.9219 32.6865 94.7461 31.3857C93.7266 25.0225 88.8398 19.8896 82.5469 18.5537C79.0312 17.8154 37.3359 17.8154 33.8203 18.5537C29.3203 19.5029 25.1367 22.667 23.2031 26.5693L22.2539 28.5381L12.832 28.6436C3.9375 28.749 3.33984 28.7842 2.42578 29.4873C1.89844 29.874 1.125 30.6475 0.738281 31.1748C0 32.124 0 32.4756 0 54.8701C0 77.124 0 77.6514 0.703125 78.8467C1.125 79.5146 1.96875 80.3584 2.63672 80.7803C3.76172 81.4131 4.57031 81.4834 12.9023 81.5889L21.9375 81.6943L22.5 83.6982C24.3281 89.9912 29.3203 96.2139 35.0156 99.2373L37.0195 100.292H51.75H66.5156L68.6602 98.3232C72.3516 95.0186 73.9688 90.624 74.0039 84.0498V81.6592H76.3594C82.4414 81.624 86.5547 80.2881 89.7539 77.2998C91.4062 75.7529 91.4766 75.7178 92.8477 76.0693C96.1172 76.9834 100.301 75.8936 103.43 73.3623L104.59 72.4131V77.7568C104.59 84.1201 104.977 85.3154 107.508 86.5459C108.352 86.9678 109.266 87.2842 109.582 87.2842C109.863 87.2842 112.359 86.6514 115.137 85.8779C117.879 85.0693 120.234 84.5068 120.305 84.6123C120.41 84.6826 119.32 86.6865 117.949 89.042C116.543 91.3975 115.277 93.8232 115.102 94.4209C114.645 96.0381 115.312 97.9365 116.719 99.2021L117.984 100.292H132.539C140.555 100.292 147.129 100.187 147.129 100.046ZM42.5742 91.5029C38.0391 90.0967 33.9961 85.9834 32.5195 81.3428C31.8516 79.1982 31.8164 78.1787 31.8164 55.6787C31.8164 32.9326 31.8516 32.2295 32.5195 31.1045C32.9062 30.4717 33.7148 29.6631 34.3477 29.2764C35.4727 28.6084 36.1758 28.5732 58.1836 28.5732C80.1914 28.5732 80.8945 28.6084 82.0195 29.2764C82.6523 29.6631 83.4609 30.4717 83.8477 31.1045C84.5156 32.2295 84.5508 32.9326 84.5508 49.8428C84.5508 66.6475 84.5156 67.4561 83.8477 68.5459C82.3711 71.0068 83.1445 70.9014 63.8086 71.1123C47.1094 71.2881 46.3711 71.3232 45.1758 71.9912C41.8008 73.9951 41.8008 78.7764 45.1758 80.7803C46.3008 81.4131 47.1094 81.4834 54.9492 81.5889L63.5273 81.6943L63.3867 85.5264C63.2812 89.2178 63.2461 89.3936 62.2266 90.4482C61.6289 91.0811 60.8555 91.7139 60.4688 91.8545C60.082 92.0303 56.4258 92.1709 52.3477 92.1709C45.8086 92.2061 44.6133 92.1357 42.5742 91.5029ZM10.3711 55.1162V39.1201H15.8203H21.2695V55.1162V71.1123H15.8203H10.3711V55.1162Z" fill="#0780BD"/>
</g>
<defs>
<clipPath id="clip0_40:14">
<rect width="180" height="180" fill="white"/>
</clipPath>
</defs>
</svg>
