<svg width="180" height="180" viewBox="0 0 180 180" fill="none" xmlns="http://www.w3.org/2000/svg">
<path d="M30.9727 4.57033C17.5078 12.0938 16.207 13.3594 9.28125 26.0508C7.03125 30.1992 4.46484 34.8047 3.62109 36.3164C1.82812 39.375 1.47656 41.1328 2.10937 43.3828C3.02344 46.6172 6.01172 48.8672 9.45703 48.8672C11.1094 48.8672 12.1992 48.4102 21.0234 43.9805C26.3672 41.2734 31.5 38.5664 32.3789 37.9688C34.3477 36.668 36.3867 33.8555 36.9844 31.5352C37.3711 30.0235 37.6875 29.6367 39.6914 28.2305C41.8711 26.6485 41.9766 26.6485 42.8555 27.1758C45.1055 28.5117 46.3711 33.5039 45.7031 38.4609C45.1055 42.6445 43.9453 45.7734 40.0078 53.5781C34.1719 65.1797 32.3789 70.207 31.5703 77.0625C30.832 83.2148 32.168 90.1406 35.1914 96.0117C37.0547 99.5977 38.3203 100.16 40.3594 98.332C41.4492 97.3477 41.3438 96.4688 39.7617 93.3047C37.4414 88.6992 36.7383 85.6406 36.7734 80.332C36.8086 73.1953 37.9336 69.6797 44.1211 57.2695C49.1133 47.3203 50.3438 43.9453 50.9766 38.25C51.6445 32.4492 49.8516 26.0156 46.9688 23.6953L45.8086 22.7461L47.6016 20.2149C48.5859 18.8086 49.5703 17.4024 49.7812 17.0508C50.1328 16.4531 50.2383 16.4531 51.9609 17.4024C58.3945 20.918 62.5781 29.6016 62.5781 39.4805C62.5781 40.8867 62.2617 44.1563 61.8398 46.7578C59.4492 62.4375 62.6133 74.8828 71.332 84.1289C73.9336 86.8711 77.5898 89.6836 82.3008 92.4961C89.4023 96.7852 96.6445 102.902 100.969 108.246C103.395 111.234 105.82 114.855 105.82 115.453C105.82 115.699 104.695 116.473 103.359 117.211C100.793 118.582 100.195 119.25 100.195 120.727C100.195 121.711 101.637 123.047 102.727 123.047C103.078 123.047 104.484 122.484 105.82 121.816C107.156 121.148 108.352 120.586 108.422 120.586C108.527 120.586 109.09 122.098 109.652 123.926C110.812 127.477 111.797 132.469 111.797 134.648V135.984L109.16 136.23C106.91 136.441 106.418 136.582 105.82 137.355C103.887 139.816 105.82 141.855 109.652 141.434L111.797 141.223V142.77C111.797 146.074 109.195 155.285 107.93 156.586C107.754 156.762 106.945 156.516 106.031 155.953C104.133 154.863 103.395 154.793 102.164 155.777C101.496 156.305 101.25 156.832 101.25 157.676C101.25 158.871 101.32 158.941 104.062 161.016L104.941 161.648L101.918 164.602C99.3516 167.063 94.8164 170.297 92.8125 171.035C92.4258 171.176 92.0039 170.684 91.3008 169.277C90.668 167.977 90.0352 167.203 89.4023 166.957C88.1016 166.465 86.6602 167.133 86.1328 168.434C85.7461 169.313 85.8164 169.699 86.4492 171.246C86.9062 172.23 87.1875 173.074 87.1172 173.145C86.8359 173.391 82.8984 174.059 79.9102 174.375C71.6133 175.254 63.4219 172.793 57.2695 167.66C53.6484 164.637 50.1328 158.695 49.0078 153.738C48.1289 149.695 48.4453 142.805 49.7461 138.867C50.9062 135.281 52.5586 131.871 53.2969 131.59C53.5781 131.484 54.1055 131.66 54.4922 132.012C55.125 132.574 55.125 132.645 54.4219 134.227C52.5586 138.586 51.8203 145.02 52.7695 149.063C54.0703 154.688 58.4648 159.926 64.5469 163.02C69.1523 165.34 72.4219 166.113 76.957 165.832C83.9883 165.445 89.8945 161.965 93.8672 155.883C100.266 146.109 98.4023 133.875 89.1562 125.227C85.1484 121.465 79.5938 118.23 73.6523 116.191C72.1055 115.629 70.7344 115.102 70.5938 114.996C70.4531 114.891 70.5234 114.047 70.6992 113.098C71.0156 111.727 70.9805 111.234 70.418 110.145C69.5742 108.352 67.7812 107.227 65.918 107.227C64.4062 107.227 63.5273 107.719 61.2773 109.793C60.2578 110.742 60.082 110.813 58.9922 110.426C58.3594 110.215 56.3203 109.16 54.457 108.105C52.5586 107.051 50.625 106.172 50.1328 106.172C48.832 106.172 47.8125 107.332 47.8125 108.773C47.8125 110.25 48.7969 111.129 52.5234 113.063C54 113.801 55.1953 114.539 55.1953 114.68C55.1953 114.785 52.9805 116.754 50.2734 119.039C47.5664 121.359 45.2109 123.609 44.9648 124.172C44.7539 124.734 44.6484 125.895 44.7539 126.809C44.8945 128.145 45.1758 128.707 46.1953 129.621L47.4258 130.746L46.5469 132.75C39.3398 149.098 44.8945 167.555 59.4844 175.57C64.8984 178.559 70.5586 179.824 78.2227 179.789C83.1094 179.754 84.3047 179.648 87.3633 178.84C102.129 174.938 112.957 162.879 116.402 146.496C117 143.719 117.176 141.68 117.176 137.461C117.176 131.344 116.508 127.266 114.574 121.746C113.062 117.457 109.371 110.426 106.875 107.051C102.867 101.672 96.0469 95.3438 89.4023 90.8086C87.7852 89.7188 86.4844 88.6992 86.4844 88.5234C86.4844 88.0664 89.8242 86.5195 92.0039 85.957C96.1875 84.8672 100.195 85.5 104.766 87.9609C107.859 89.6133 108.949 89.6133 109.969 87.8906C110.285 87.293 111.129 85.8516 111.797 84.6914C114.258 80.3672 118.266 77.2031 123.574 75.375C126.141 74.4961 126.844 74.3906 131.484 74.3906C135.316 74.3555 137.285 74.5313 139.5 75.0234C141.926 75.5859 142.523 75.6211 143.227 75.2695C144.562 74.5313 144.844 73.5117 144.422 70.6289C143.895 66.832 144.281 59.1328 145.16 55.7227C145.969 52.6992 147.586 49.043 149.344 46.2656C150.68 44.1914 150.715 43.6641 149.73 42.3984C149.027 41.4844 147.727 41.2031 146.461 41.6953C145.688 41.9766 142.98 46.4414 141.715 49.4648C140.414 52.6289 139.324 57.0938 139.008 60.5039L138.762 63.2109L134.332 58.7461C127.969 52.3477 122.625 48.4805 115.242 45C109.266 42.1875 98.7539 38.8125 97.4531 39.2695C96.1875 39.7266 95.625 40.5352 95.625 41.8711C95.625 43.6289 96.2227 44.0156 101.109 45.3867C114.223 49.0781 124.348 55.1953 132.645 64.5117C134.367 66.4453 135.879 68.2734 136.055 68.5547C136.301 69.0117 135.633 69.082 131.168 69.1172C127.16 69.1523 125.438 69.3281 123.258 69.9258C118.723 71.1211 114.926 73.1602 112.008 75.9727C110.602 77.3086 109.336 78.3984 109.23 78.3984C109.16 78.3984 108.949 77.8008 108.809 77.0625C108.07 73.0547 102.938 59.9063 101.602 58.5703C100.758 57.7266 99 57.6914 98.0859 58.5352C97.0664 59.4492 97.207 61.0313 98.5781 64.0195C100.793 68.8711 103.57 76.957 104.238 80.6133L104.484 81.8789L102.27 81.1758C96.1875 79.2773 89.543 80.2969 83.4609 84.0938C82.2656 84.832 81.2109 85.4297 81.0703 85.4297C80.0859 85.4297 73.6172 79.3828 71.7891 76.7813L71.0508 75.6914L73.7227 74.3555C76.9922 72.7383 81.4922 68.4492 83.3906 65.2148C86.9062 59.1328 88.5586 52.8047 88.8398 44.2969L89.0508 38.4961L93.1289 34.4531C99.4922 28.125 105.996 24.1524 114.258 21.4453C121.008 19.2305 124.172 18.8086 133.418 18.8086C140.414 18.8086 142.031 18.9141 145.547 19.6172C153.141 21.1289 159.961 23.3789 165.41 26.086L168.188 27.4922L165.059 28.6524C161.332 29.9531 157.746 31.7461 156.797 32.6953C155.32 34.1719 156.516 36.9141 158.625 36.9141C159.117 36.9141 160.77 36.2813 162.281 35.543C166.078 33.6797 169.523 32.4844 173.602 31.6758C177.328 30.9024 178.242 30.2695 178.242 28.4766C178.242 27.7383 177.891 27.1758 176.941 26.4024C175.324 25.0664 164.812 19.793 160.488 18.1406C156.902 16.7695 156.832 16.9102 161.789 15.4336C165.375 14.4141 166.641 12.8672 165.586 10.8633C164.672 9.17579 150.68 3.90236 142.031 1.96876C135.598 0.562513 132.117 0.210951 124.98 0.210951C119.531 0.210951 117.598 0.351576 114.398 0.984388C100.652 3.72658 87.1523 11.3203 78.3281 21.375L76.7109 23.2031L76.4648 22.1485C76.0078 20.0391 73.7227 19.4063 72.1758 20.9531C71.1562 21.9727 71.1914 22.2188 72.2461 28.125C73.6172 35.5781 73.582 43.9453 72.2109 49.3945C71.4375 52.4531 69.1875 56.918 67.5 58.7109L66.0586 60.293L66.2344 55.7227C66.3398 53.1914 66.6914 49.8164 66.9727 48.1641C69.8906 32.3789 65.0742 18.7031 54.457 12.7617C53.5078 12.1992 52.7344 11.6719 52.7344 11.5664C52.7344 11.4258 53.2969 9.63283 53.9648 7.59376C54.6328 5.51954 55.1953 3.33986 55.1953 2.77736C55.1953 1.58204 53.8242 1.33514e-05 52.8047 1.33514e-05C52.418 1.33514e-05 49.957 1.01954 47.3203 2.28517C44.6836 3.55079 42.4336 4.57033 42.3633 4.57033C42.2578 4.57033 42.293 3.93751 42.3984 3.19923C42.5742 2.00392 42.5039 1.68751 41.7305 0.914076C41.2031 0.421888 40.4648 1.33514e-05 40.0078 1.33514e-05C39.5508 1.33514e-05 35.5078 2.07423 30.9727 4.57033ZM131.309 5.62501C138.762 6.25783 145.512 7.76954 152.543 10.4766L155.848 11.7422L152.789 13.2188L149.766 14.7305L146.32 14.0625C129.586 10.8281 112.887 13.957 99.2109 22.957C95.6602 25.2774 91.125 28.793 89.6836 30.375C88.6289 31.5 88.2422 31.5352 88.2422 30.4453C88.2422 29.5664 86.8008 28.125 85.9219 28.125C85.0078 28.125 83.7422 28.9336 83.3906 29.707C83.1094 30.2695 83.1094 31.5352 83.3203 33.6445C84.832 47.8477 82.0898 60.2227 76.1133 66.3047C73.9688 68.4492 69.75 70.9453 68.8359 70.5586C68.5547 70.4883 68.0977 69.5742 67.7812 68.5547L67.1836 66.6914L70.1367 63.5625C72.4922 61.0664 73.4414 59.7656 74.707 57.1641C77.7305 50.9414 79.0312 42.9961 78.3984 34.5235L78.0469 30.1641L80.2969 27.2813C88.6289 16.6992 100.582 9.38673 113.906 6.6797C117.176 6.01173 121.887 5.44923 125.543 5.30861C126.246 5.30861 128.848 5.44923 131.309 5.62501ZM46.8281 11.0391C46.0547 12.6914 44.7188 15.0117 43.9102 16.2422C42.3984 18.4922 38.1094 23.2031 37.5469 23.2031C36.9141 23.2031 37.3359 20.0742 38.5312 15.9961L39.832 11.6719L43.9102 9.73829C46.1602 8.68361 48.0586 7.87501 48.1289 7.94533C48.1992 8.01564 47.6016 9.42189 46.8281 11.0391ZM35.1562 8.75392C35.1562 8.9297 34.4531 11.4258 33.5391 14.2735L31.957 19.5117L32.2031 23.9063C32.3437 26.8945 32.2734 28.793 31.9922 29.8477C31.2539 32.5899 29.8477 33.6094 19.0898 39.0586L9.17578 44.1211L8.1914 43.3828C7.66406 42.9609 7.17187 42.293 7.10156 41.8711C7.03125 41.4141 8.05078 39.1641 9.77344 36.1055C11.2852 33.3633 13.7109 28.9336 15.1523 26.2969C19.4766 18.2461 22.1133 15.5391 30.1641 11.0039C34.8398 8.40236 35.1562 8.22658 35.1562 8.75392ZM63.3516 122.59C62.2969 127.582 61.3477 131.73 61.2773 131.801C61.207 131.906 60.3281 131.063 59.3086 130.008C57.2344 127.758 55.5469 126.809 52.5938 126.211C51.4688 126 50.6953 125.648 50.8359 125.508C51.7852 124.559 64.8984 113.59 65.0742 113.555C65.1797 113.555 64.4062 117.633 63.3516 122.59ZM75.9727 123.047C78.0117 123.926 80.8242 125.402 82.1602 126.316C93.3047 133.734 95.7305 147.305 87.3984 155.566C83.8828 159.047 79.9805 160.664 75.0586 160.664C70.4531 160.664 65.9531 158.73 62.3672 155.215C57.832 150.785 56.5312 145.582 58.3242 138.973C58.7109 137.531 58.7109 137.531 59.9062 137.883C61.6289 138.41 63.5977 137.953 64.8633 136.652C65.8477 135.633 66.0586 134.965 67.2891 129.199C68.0273 125.719 68.7656 122.273 68.9414 121.57L69.293 120.234L70.7695 120.832C71.5781 121.148 73.9336 122.133 75.9727 123.047Z" fill="#DFB157"/>
</svg>
