<svg width="180" height="180" viewBox="0 0 180 180" fill="none" xmlns="http://www.w3.org/2000/svg">
<path d="M104.027 3.26952C100.336 4.64061 98.8594 6.92577 98.4375 11.8476C98.1562 14.8711 97.5234 17.543 96.8203 18.668C96.7148 18.8789 96.2226 18.3867 95.7305 17.6484C92.6719 12.9023 85.5703 13.0078 82.7578 17.789C82.0898 18.9492 81.7383 20.1445 81.5273 22.1836C81.2461 25.207 80.1914 27.9141 78.6445 29.7422L77.6953 30.8672L72.5273 31.0078C67.9219 31.1484 67.1133 31.2539 65.5664 31.9922C62.0508 33.7148 59.6602 37.0898 59.2031 40.957L58.957 42.8906L55.4062 43.9805C53.4727 44.543 51.1523 45.2812 50.3086 45.5625C47.7773 46.3711 47.8125 46.4062 47.8125 42.9258C47.8125 39.3047 48.3047 38.3555 50.5195 37.6875C54.3164 36.5625 56.3203 34.1367 57.4805 29.25C58.1484 26.4375 59.0977 25.3125 60.8555 25.3125H61.875V22.4648V19.582L59.9414 19.793C57.5156 20.039 55.1602 21.375 53.8242 23.2383C53.1914 24.082 52.5234 25.8047 52.0312 27.7383C51.6094 29.4609 51.0117 31.1133 50.6953 31.3945C50.3437 31.6758 49.3242 32.168 48.375 32.4492C46.0898 33.2226 44.5078 34.4883 43.3477 36.4922C42.4336 38.0391 42.3633 38.4258 42.2578 43.0664L42.1172 48.0234L39.7969 48.6562C36.2461 49.6406 34.7695 50.3789 33.3281 51.8555C31.4648 53.7891 30.9375 55.6172 30.9375 60.2578C30.9727 65.4961 31.7812 67.2891 35.1211 69.3984C36.0703 70.0312 36.5625 70.6289 36.8789 71.7539C38.8828 78.4336 41.3437 81.0351 46.0195 81.457C47.8828 81.6328 48.6562 81.3867 58.5352 77.7305L69.0469 73.793L71.0859 74.707C74.8828 76.4297 78.8906 76.1484 82.0195 74.0039L83.3203 73.125L85.3594 74.2148C89.4726 76.3594 94.3242 76.4297 98.5078 74.3555C100.687 73.3008 103.605 70.5937 104.625 68.7305C104.977 68.0625 105.363 67.5 105.469 67.5C105.996 67.5 111.762 73.793 112.605 75.2695C113.484 76.7461 114.961 80.543 114.961 81.2812C114.961 81.4219 108.773 81.5625 101.25 81.5625C86.5547 81.5625 82.9687 81.8086 76.6758 83.1797C70.9453 84.4453 67.4297 85.7461 60.9961 88.9453L55.3711 91.7227L47.1094 93.1289C36.9141 94.8516 29.3203 96.0469 20.3906 97.207C14.8359 97.9805 13.2539 98.2969 12.0586 99C8.01562 101.355 7.24219 106.77 10.4766 110.145C12.0234 111.762 13.3242 112.289 16.5234 112.5C18.8437 112.641 19.5117 112.781 19.6172 113.238C19.6875 113.59 17.5078 115.242 12.7266 118.441C8.85937 121.008 5.30859 123.504 4.81641 124.031C1.125 127.863 2.95312 134.227 8.19141 135.668C9.07031 135.949 10.0547 136.406 10.3359 136.723C11.6016 138.129 11.3906 138.832 8.08594 144.668C3.69141 152.438 2.56641 155.777 2.88281 159.855C3.26953 164.461 8.01562 167.238 12.1289 165.234C13.5703 164.531 14.6602 163.266 21.6562 153.949C26.9648 146.848 29.7422 143.438 30.1992 143.438C31.1836 143.438 31.8516 144.457 32.4844 147.094C33.5039 151.313 34.4883 152.684 37.2656 153.949C40.1836 155.285 43.2422 154.688 45.5273 152.402C47.4258 150.504 47.8125 148.992 47.8125 143.508C47.8125 137.145 47.9883 136.934 53.6484 137.637C57.832 138.164 61.6289 136.16 63.5273 132.398C64.3008 130.852 64.4766 129.937 64.7578 125.684C64.8984 122.977 65.2852 119.32 65.5664 117.598C66.1992 113.801 68.1328 106.98 68.7305 106.383C69.2578 105.891 74.25 104.941 79.1016 104.414C80.9297 104.238 86.4844 104.062 91.4062 104.098H100.371L92.2851 108.211C83.1445 112.852 81.5625 113.836 78.5391 116.895C71.8945 123.645 69.0469 133.488 70.9805 142.945C73.2656 154.055 82.1953 162.984 93.3047 165.27C95.8359 165.797 98.0508 165.938 103.852 165.938H111.199L116.367 171.035C119.355 173.988 122.062 176.344 122.801 176.66C126.246 178.102 130.184 176.414 131.66 172.863C131.941 172.16 132.293 171.563 132.363 171.563C132.469 171.563 135.527 172.828 139.184 174.375C146.25 177.363 147.27 177.574 149.625 176.52C152.156 175.359 153.527 172.793 153.176 169.805L152.965 168.188L157.605 167.555C168.293 166.113 169.523 165.656 170.895 162.633C172.617 158.871 170.613 155.039 166.219 153.633L164.918 153.246L166.465 151.137C172.898 142.383 173.18 131.273 167.238 122.062C165.867 119.953 165.621 119.25 165.516 117.527L165.41 115.488L168.75 115.312C173.074 115.102 174.902 114.117 176.273 111.375C177.891 108.176 177.539 106.488 174.234 101.566C173.145 99.9492 172.266 98.2969 172.266 97.9453C172.266 97.5586 173.215 94.8516 174.375 91.9336C175.5 89.0156 176.66 85.7812 176.871 84.7266C177.68 80.9648 176.59 75.6562 174.375 72.4922C173.812 71.6836 173.32 70.875 173.32 70.7344C173.32 70.5586 173.812 69.9961 174.41 69.3984C176.273 67.6406 176.977 65.8828 176.977 63.1055C176.977 58.4297 175.008 56.2851 168.434 53.6484L164.18 51.9609L164.953 50.5195C166.113 48.3398 166.078 44.6836 164.883 42.5391C163.617 40.3242 161.578 38.8828 158.59 38.1445C155.285 37.3359 154.687 36.6328 154.687 33.3984C154.687 29.9531 153.422 27.6328 150.855 26.2969C147.797 24.6797 145.758 24.9961 141.785 27.7031C137.918 30.3398 136.898 30.6914 133.066 30.8672L129.551 31.0078L127.828 29.3555C126.879 28.4414 125.051 27.2109 123.785 26.6133C121.711 25.6289 121.113 25.5234 118.125 25.4883C116.297 25.4883 114.047 25.5937 113.133 25.7344L111.516 25.9805L112.57 23.6601C114.258 19.8984 115.031 16.4531 115.102 12.2695C115.137 8.71874 115.102 8.5078 114.082 6.85545C112.605 4.42967 110.391 3.12889 107.508 2.95311C106.172 2.84764 104.801 2.98827 104.027 3.26952ZM108.809 9.31639C109.863 10.3359 109.969 12.0937 109.125 16.1015C108.281 20.3906 105.996 24.7148 102.797 28.0898L100.09 30.9726L104.66 35.6133C109.512 40.5 110.004 41.3437 109.512 43.8047C109.195 45.4922 107.227 47.3906 105.469 47.6719L104.062 47.918V50.7305V53.543L105.785 53.332C107.508 53.1211 110.039 52.0664 111.164 51.082C111.727 50.5898 111.867 50.625 112.781 51.3633C113.344 51.8203 114.082 52.3828 114.434 52.5586C115.031 52.9101 115.031 53.0156 114.328 54.3516C113.52 55.9336 111.551 57.832 110.074 58.4297C109.582 58.6758 107.508 58.9219 105.504 59.0273L101.848 59.2383L101.109 62.0508C100.687 63.5976 99.9844 65.4609 99.5273 66.1992C97.8398 68.9414 94.5 70.5586 91.1953 70.207C89.0156 69.9961 86.3789 68.6601 86.6601 67.9219C86.7656 67.6406 86.9414 66.832 87.0469 66.0937C87.2578 64.8281 87.3281 64.7578 88.875 64.5117C90.7031 64.2305 93.2695 63.0351 94.8164 61.7344C95.3789 61.2422 96.3984 59.8711 97.0664 58.6406C98.1562 56.6016 98.2617 56.1797 98.2617 53.4375C98.2617 50.6953 98.1562 50.2734 97.0664 48.2344C96.3984 47.0039 95.3789 45.6328 94.8164 45.1406C93.2344 43.8047 90.7031 42.6445 88.8398 42.3633L87.1875 42.1172V44.8945V47.6719L88.7344 48.0937C92.5312 49.1133 94.043 53.9648 91.5117 56.9883C90.1055 58.6406 88.7344 59.0625 84.9375 59.0625H81.6328L81.4922 62.8945C81.3867 67.043 81.0703 67.8516 78.9609 69.3984C77.5898 70.418 74.2852 70.418 72.9141 69.3984C70.8047 67.8516 70.4883 67.043 70.3828 62.8945L70.2422 59.0625H67.4297H64.6172L64.793 63.3516C64.8984 65.7422 65.0742 67.9922 65.2148 68.4141C65.4258 69.082 64.793 69.3984 56.3555 72.5625C51.3633 74.4258 47.0039 75.9375 46.6523 75.9375C45.1406 75.9375 44.0156 74.918 43.2422 72.9141C41.9414 69.3984 41.4844 69.8203 49.5352 67.1133C53.4727 65.7773 56.7773 64.6523 56.8477 64.5469C57.1289 64.2656 55.4062 59.4141 55.0195 59.4141C54.8086 59.4141 51.082 60.6094 46.7578 62.0508C42.4336 63.4922 38.6719 64.6875 38.4258 64.6875C38.1797 64.6875 37.6523 64.3711 37.2656 63.9844C36.668 63.3867 36.5625 62.8242 36.5625 59.9766C36.5625 55.9687 36.8789 55.4414 39.9727 54.5273L42.1875 53.8594V56.4609V59.0625H45H47.8125V55.6172V52.1719L55.125 49.9922L62.4023 47.8476L67.8516 47.7422C72.9492 47.6016 73.4062 47.5312 75.0937 46.6875C77.7305 45.3164 78.8555 44.2266 80.1211 41.8711C80.8945 40.3594 81.2812 39.0937 81.457 37.4062C81.6328 35.2969 81.8437 34.8047 83.2851 32.9062C85.3594 30.1641 86.3789 27.8086 86.8711 24.5391C87.5039 20.4609 87.5039 20.3906 88.418 19.9687C89.0508 19.6875 89.543 19.6875 90.1406 19.9687C90.8086 20.2851 91.3008 21.2695 92.6367 25.2773C93.5508 28.0195 94.3945 30.2344 94.5703 30.2344C94.7461 30.2344 96.082 28.9336 97.5586 27.3516C101.707 22.8515 104.027 17.4023 104.062 12.0234C104.062 9.77342 105.117 8.43749 106.875 8.43749C107.543 8.43749 108.281 8.75389 108.809 9.31639ZM120.727 31.3594C123.75 32.2734 126.562 36.1406 126.562 39.375C126.562 43.6992 122.484 47.8125 118.16 47.8125C116.684 47.8125 115.312 46.4766 115.312 45C115.312 43.207 116.648 42.1875 119.004 42.1875H120.937V39.375V36.5625H118.934C117.809 36.5976 116.262 36.8086 115.488 37.0898C114.152 37.582 114.047 37.582 113.555 36.8086C113.273 36.3867 112.289 35.2266 111.34 34.207C110.426 33.2226 109.793 32.3437 109.934 32.2383C110.18 32.0976 111.34 31.8516 114.785 31.1484C116.332 30.8672 119.355 30.9726 120.727 31.3594ZM148.43 31.3594C148.852 31.6758 149.027 32.625 149.133 34.6641C149.414 39.5508 151.664 42.2578 156.445 43.418C159.012 44.0508 160.312 45.0703 160.312 46.4766C160.312 46.8281 159.434 48.8672 158.379 50.9766C156.656 54.4219 156.516 54.8437 157.078 55.125C157.395 55.3008 160.559 56.6016 164.109 58.0078C169.559 60.1523 170.613 60.7148 171.035 61.5586C171.984 63.3867 171.562 65.0039 169.875 65.8828C168.961 66.375 168.891 66.3398 166.324 63.9141C163.23 60.9609 160.383 59.4844 157.078 59.168L154.793 58.957L153.457 56.6367C149.027 48.9023 142.629 42.6797 133.664 37.3711L132.504 36.668L134.895 36.457C138.023 36.2109 140.625 35.1914 144.211 32.8711C147.375 30.7969 147.586 30.7266 148.43 31.3594ZM75.7969 37.6875C75.5508 39.0586 74.707 40.2891 73.3359 41.2734C72.5273 41.9062 71.7539 42.0469 68.5195 42.1172C64.3359 42.2578 64.3008 42.2226 65.0742 40.1836C66.0937 37.4766 67.9219 36.5976 72.5625 36.5625H76.043L75.7969 37.6875ZM135.141 44.8945C138.762 47.3203 144.633 53.332 147.234 57.2695L149.414 60.6094L147.691 62.1211C146.531 63.1406 145.512 64.4766 144.773 66.0234C143.719 68.1328 143.613 68.6601 143.648 71.3672C143.684 76.2187 145.16 78.6094 150.645 82.7227C154.758 85.7812 154.687 85.6758 154.687 89.332C154.687 93.5859 154.617 93.6562 147.059 96.1523C143.719 97.2422 140.59 98.4727 140.062 98.8594C139.57 99.2812 138.832 100.266 138.48 101.039C137.25 103.746 137.812 106.207 140.027 108.176C141.152 109.16 142.031 109.477 144.492 109.793C145.23 109.898 138.902 116.191 136.055 118.195C134.789 119.074 129.34 122.273 123.926 125.297C112.746 131.555 111.199 132.82 110.18 136.301C108.844 140.941 110.742 145.477 115.031 147.832C116.895 148.887 116.895 148.887 122.695 148.852C127.969 148.852 128.742 148.746 131.309 147.902C135.352 146.566 138.305 144.703 141.504 141.504C144.738 138.27 146.566 135.352 147.902 131.309C148.676 128.918 148.816 127.863 148.852 124.102C148.887 120.937 148.711 119.074 148.254 117.492L147.656 115.242L148.957 113.66L150.258 112.078L150.855 114.328C151.523 116.965 152.332 118.512 153.598 119.461C155.039 120.516 157.078 121.043 158.766 120.797L160.312 120.586V123.504C160.312 129.27 158.941 134.965 156.27 140.273C150.996 150.785 140.309 158.379 128.496 159.961C126.422 160.242 122.168 160.348 116.191 160.242C107.895 160.102 106.875 160.031 104.977 159.328C102.164 158.273 99.914 156.797 97.8398 154.582C94.6758 151.207 93.2695 147.973 92.918 143.262C92.5664 138.164 94.3242 133.523 98.0859 129.691C100.23 127.512 100.969 127.09 109.336 122.871C118.758 118.16 122.625 115.84 125.93 112.852C130.57 108.703 134.895 101.391 136.617 94.7461C137.426 91.7227 137.566 90.457 137.602 85.7812C137.637 79.7344 137.25 77.0976 135.598 72.4219C133.488 66.375 130.816 62.2617 125.262 56.5664L121.641 52.8398L122.977 52.4531C126.246 51.4687 129.832 47.9883 131.027 44.6133C131.766 42.6094 131.625 42.6094 135.141 44.8945ZM122.484 61.875C124.348 63.8086 125.859 65.6367 125.859 65.918C125.859 66.5859 121.289 68.7656 118.406 69.4687L116.051 70.0664L113.273 67.1133L110.496 64.1953L112.359 63.4219C114.469 62.5781 116.719 60.8906 117.773 59.3789C118.195 58.8164 118.652 58.3594 118.793 58.3594C118.969 58.3594 120.621 59.9414 122.484 61.875ZM159.082 65.5312C160.312 66.0937 162.211 67.7461 165.305 70.9101C170.719 76.3945 171.387 77.5898 171.352 81.7383C171.352 84.375 171.211 84.9023 168.996 90.3867C165.832 98.2617 165.867 99.2461 169.594 104.836C172.441 109.09 172.266 109.687 168.047 109.687C166.535 109.687 164.672 109.934 163.758 110.215C162.176 110.777 159.434 113.133 159.082 114.258C158.836 114.996 158.062 115.383 157.324 115.102C156.832 114.891 156.621 114.363 155.707 110.637C155.18 108.422 153.668 106.418 151.629 105.258C150.223 104.414 149.484 104.238 146.707 104.133C144.598 104.027 143.437 103.852 143.543 103.605C143.613 103.395 146.109 102.41 149.098 101.426C155.637 99.2461 157.184 98.4727 158.414 96.8555C159.855 94.957 160.277 93.3047 160.312 89.5078C160.312 83.707 159.645 82.5117 153.984 78.2226C151.418 76.2891 150.363 75.2344 149.801 74.0742C148.535 71.4375 148.957 68.7305 151.031 66.6562C153.176 64.5117 156.094 64.125 159.082 65.5312ZM130.254 74.1797C130.781 75.7266 131.414 78.2226 131.66 79.7344C132.223 82.8633 132.328 82.6875 129.023 84.3398C126.914 85.4297 124.312 86.3086 122.309 86.6602L121.043 86.9062L120.832 83.6016C120.727 81.5273 120.34 79.3828 119.812 77.8008L118.969 75.2695L121.781 74.3906C123.363 73.8984 125.578 72.9492 126.738 72.2812C127.898 71.6484 128.953 71.1562 129.094 71.2266C129.199 71.2969 129.727 72.6328 130.254 74.1797ZM114.82 88.8398C114.539 91.0547 112.535 95.168 110.953 96.9609L109.652 98.3672L93.7617 98.543C77.0976 98.6836 74.9531 98.8594 67.5 100.582C62.0156 101.848 54.7383 104.52 49.3242 107.227C46.4062 108.668 44.1211 109.652 44.2969 109.336C44.8242 108.387 50.3789 102.832 52.7344 100.898C61.3477 93.832 73.0547 88.875 84.2344 87.5742C85.5703 87.3984 93.0586 87.2578 100.863 87.2227L115.066 87.1875L114.82 88.8398ZM131.168 93.2344C130.781 94.8867 129.621 97.7695 128.566 99.8437L126.703 103.535L125.086 103.5C123.293 103.5 119.812 101.918 117.809 100.23L116.578 99.2109L118.125 96.1172C119.004 94.3945 119.707 92.9531 119.707 92.918C119.742 92.8477 121.184 92.5664 122.871 92.2852C124.594 91.9687 127.266 91.2305 128.848 90.5977C130.852 89.7891 131.695 89.6133 131.766 89.8945C131.836 90.1406 131.555 91.6523 131.168 93.2344ZM43.5586 101.848C39.0234 106.594 35.8242 110.988 32.7305 116.789C30.7266 120.551 30.5508 121.641 31.8164 122.871C33.2578 124.348 34.3477 124.066 37.8281 121.219C42.3633 117.562 46.6172 114.891 52.207 112.148C57.1641 109.723 61.3828 108.035 61.6992 108.352C61.8047 108.457 61.5586 109.758 61.1719 111.305C60.082 115.453 59.4492 119.918 59.2031 124.629C59.0625 127.125 58.7812 129.305 58.4648 129.973C57.7266 131.555 55.8984 132.363 53.8242 131.977C49.3594 131.168 46.5117 131.977 44.2266 134.648C42.5391 136.582 42.1875 138.094 42.1875 143.262C42.1875 146.953 42.082 147.902 41.5898 148.43C40.3594 149.801 38.6367 148.922 38.1445 146.602C37.4414 143.332 36.5273 141.082 35.4375 140.027C33.082 137.742 30.375 137.285 27.3516 138.586C25.6641 139.289 25.1367 139.922 17.7187 149.836C13.3945 155.602 9.70312 160.313 9.5625 160.313C8.61328 160.277 8.33203 159.609 8.57812 157.711C8.89453 155.039 9.45703 153.668 13.2187 147.023C15.2578 143.367 16.5234 140.766 16.6641 139.816C17.2617 135.668 14.4141 131.59 10.0547 130.395C8.82422 130.043 8.29687 129.34 8.61328 128.355C8.71875 128.039 11.8828 125.754 15.6797 123.258C22.9922 118.406 24.7852 116.789 25.1719 114.785C26.0156 110.18 22.8867 106.875 17.6836 106.875C15.0117 106.875 14.0625 106.418 14.0625 105.117C14.0625 103.922 15.4687 103.5 21.7969 102.691C26.4727 102.094 45.5273 99.1055 46.3711 98.8242C46.4414 98.8242 45.1758 100.16 43.5586 101.848ZM114.75 104.906C116.402 106.242 118.617 107.473 121.254 108.527C122.098 108.844 122.062 108.914 119.988 110.461C117.387 112.5 113.555 114.609 112.535 114.609C110.707 114.609 107.402 112.254 105.715 109.687C104.836 108.387 104.941 108.176 106.98 107.156C107.965 106.664 109.687 105.609 110.742 104.801C111.797 104.027 112.711 103.395 112.781 103.359C112.816 103.359 113.695 104.062 114.75 104.906ZM101.426 113.344C102.199 114.504 103.57 116.016 104.484 116.754L106.172 118.09L101.707 120.375L97.2422 122.695L95.8711 121.359C94.6406 120.164 91.4062 115.699 91.4062 115.172C91.4062 114.82 99.668 110.777 99.8437 111.023C99.9492 111.164 100.652 112.219 101.426 113.344ZM88.1719 120.586C89.1211 122.027 90.668 123.996 91.5469 124.945C93.1641 126.668 93.1641 126.703 92.4961 127.406C92.1445 127.828 91.3711 128.883 90.8086 129.797L89.7891 131.414L87.9961 130.781C85.5351 129.902 83.2148 128.496 81.1055 126.562L79.3476 124.945L80.4023 123.363C81.8086 121.395 85.9922 117.492 86.3437 117.844C86.3789 117.914 87.2226 119.145 88.1719 120.586ZM143.332 124.98C142.734 133.207 137.461 139.887 129.375 142.594C127.863 143.121 126.387 143.262 122.625 143.262H117.773L116.684 142.172C115.875 141.363 115.559 140.66 115.418 139.535C115.172 136.828 115.664 136.406 125.719 130.781C134.402 125.93 139.535 122.73 141.855 120.832L142.91 119.953L143.227 121.043C143.367 121.676 143.437 123.434 143.332 124.98ZM79.2422 132.328C81.3516 133.84 85.6758 136.125 87.2226 136.512C87.7851 136.652 87.9258 136.898 87.75 137.32C87.6094 137.672 87.3984 139.184 87.293 140.695L87.082 143.438H85.6406C83.6719 143.402 81.457 142.875 79.3125 141.855C76.3594 140.449 75.9375 139.887 75.9375 137.391C75.9375 135.211 76.5703 130.781 76.8867 130.781C76.957 130.781 78.0117 131.484 79.2422 132.328ZM165.797 137.285C165.621 140.027 164.848 142.875 163.687 145.125C163.371 145.723 161.473 148.43 159.434 151.172C157.078 154.301 155.883 156.164 156.164 156.27C156.41 156.375 158.695 157.148 161.191 157.957C164.18 158.977 165.797 159.68 165.867 160.031C166.008 160.734 166.148 160.699 154.969 162.281C149.273 163.055 145.547 163.758 145.547 163.969C145.547 164.18 146.039 165.832 146.637 167.625C147.41 169.945 147.621 171.035 147.375 171.281C147.094 171.563 144.984 170.789 140.203 168.75C136.477 167.133 133.102 165.691 132.715 165.48C132.152 165.199 132.539 164.988 135.176 164.285C148.887 160.664 160.594 148.852 164.32 135C164.637 133.734 165.023 132.469 165.129 132.187C165.551 131.133 166.008 134.508 165.797 137.285ZM85.7812 149.063H88.0664L89.4375 152.051C90.2461 153.809 91.6523 156.059 92.8125 157.465L94.8515 159.855L93.375 159.539C89.4726 158.695 83.7422 155.039 81.3164 151.805C79.5937 149.52 78.75 148.254 78.75 148.008C78.75 147.867 79.8047 148.078 81.1406 148.395C82.4414 148.746 84.5156 149.027 85.7812 149.063ZM125.684 167.73C126.703 169.699 126.703 170.754 125.789 171.352C125.262 171.668 124.699 171.281 122.273 168.82L119.355 165.938H122.062H124.805L125.684 167.73Z" fill="#B83D3D"/>
</svg>
